<?xml version="1.0" encoding="utf-8"?>
<svg xmlns="http://www.w3.org/2000/svg" xmlns:xlink="http://www.w3.org/1999/xlink" style="margin: auto; background: none; display: block; shape-rendering: auto;" width="291px" height="291px" viewBox="0 0 100 100" preserveAspectRatio="xMidYMid">
<g transform="translate(50 50)">
<g>
<animateTransform attributeName="transform" type="rotate" values="0;32.72727272727273" keyTimes="0;1" dur="0.2958579881656805s" repeatCount="indefinite"></animateTransform><path d="M25.411611519146124 -5.5 L33.41161151914612 -5.5 L33.41161151914612 5.5 L25.411611519146124 5.5 A26 26 0 0 1 24.351132461421003 9.111659994003745 L24.351132461421003 9.111659994003745 L31.08116072407045 13.436786533648526 L25.134111732058876 22.690575394791516 L18.40408346940943 18.365448855146735 A26 26 0 0 1 15.559340904074826 20.830432319824375 L15.559340904074826 20.830432319824375 L18.88266100808992 28.107488282660523 L8.876709059190212 32.67705342568128 L5.553388955175121 25.39999746284513 A26 26 0 0 1 1.8275685467343004 25.935689564902408 L1.8275685467343004 25.935689564902408 L0.6890498405480205 33.854261099949866 L-10.198986020142234 32.28879787894373 L-9.060467313955954 24.37022634389627 A26 26 0 0 1 -12.484443911212074 22.806548625949517 L-12.484443911212074 22.806548625949517 L-17.723329782774353 28.852545220783583 L-26.036575100671186 21.64907714738545 L-20.797689229108908 15.603080552551384 A26 26 0 0 1 -22.83273363821407 12.436489641629898 L-22.83273363821407 12.436489641629898 L-30.50867742713005 14.690350096361335 L-33.607735552385776 4.135927386601869 L-25.931791763469793 1.8820669318704315 A26 26 0 0 1 -25.931791763469793 -1.8820669318704248 L-25.931791763469793 -1.8820669318704248 L-33.607735552385776 -4.1359273866018595 L-30.508677427130053 -14.690350096361325 L-22.832733638214073 -12.43648964162989 A26 26 0 0 1 -20.797689229108915 -15.603080552551383 L-20.797689229108915 -15.603080552551383 L-26.036575100671197 -21.649077147385448 L-17.72332978277436 -28.85254522078358 L-12.484443911212077 -22.806548625949514 A26 26 0 0 1 -9.060467313955971 -24.370226343896263 L-9.060467313955971 -24.370226343896263 L-10.198986020142254 -32.288797878943726 L0.689049840548023 -33.854261099949866 L1.8275685467343052 -25.935689564902404 A26 26 0 0 1 5.5533889551751034 -25.399997462845135 L5.5533889551751034 -25.399997462845135 L8.87670905919019 -32.67705342568129 L18.88266100808991 -28.107488282660526 L15.559340904074823 -20.83043231982438 A26 26 0 0 1 18.404083469409425 -18.36544885514674 L18.404083469409425 -18.36544885514674 L25.134111732058876 -22.690575394791523 L31.081160724070457 -13.436786533648515 L24.351132461421006 -9.111659994003734 A26 26 0 0 1 25.411611519146124 -5.500000000000014 M0 -19A19 19 0 1 0 0 19 A19 19 0 1 0 0 -19" fill="#e15b64"></path></g></g>
<!-- [ldio] generated by https://loading.io/ --></svg>